<?xml version="1.0" encoding="utf-8"?>
<!-- Generator: Adobe Illustrator 18.0.0, SVG Export Plug-In . SVG Version: 6.00 Build 0)  -->
<!DOCTYPE svg PUBLIC "-//W3C//DTD SVG 1.1//EN" "http://www.w3.org/Graphics/SVG/1.1/DTD/svg11.dtd">
<svg version="1.1" id="Layer_1" xmlns="http://www.w3.org/2000/svg" xmlns:xlink="http://www.w3.org/1999/xlink" x="0px" y="0px"
	 viewBox="0 0 1024 768" enable-background="new 0 0 1024 768" xml:space="preserve">
<g>
	<g>
		<g>
			<rect x="735.8" y="116.4" transform="matrix(0.4843 0.8749 -0.8749 0.4843 718.5874 -443.9478)" width="0.2" height="542.3"/>
		</g>
		<g>
			<rect x="464.7" y="387.5" transform="matrix(0.8747 0.4847 -0.4847 0.8747 280.0928 -308.0753)" width="542.3" height="0.2"/>
		</g>
		<g>
			<path d="M973.2,519.2H498.5V256h474.8L973.2,519.2L973.2,519.2z M498.9,518.8h473.9V256.5H498.9V518.8z"/>
		</g>
	</g>
	<g>
		<g>
			<rect x="971.8" y="386.6" width="2.7" height="2.7"/>
			<path d="M974.7,389.5h-3.1v-3.1h3.1V389.5z M972,389h2.2v-2.2H972V389z"/>
		</g>
		<g>
			<circle cx="985.3" cy="387.8" r="2.1"/>
			<path d="M985.3,390.1c-1.3,0-2.3-1-2.3-2.3s1-2.3,2.3-2.3s2.3,1,2.3,2.3S986.6,390.1,985.3,390.1z M985.3,385.9
				c-1,0-1.9,0.8-1.9,1.9s0.8,1.9,1.9,1.9c1.1,0,1.9-0.8,1.9-1.9S986.3,385.9,985.3,385.9z"/>
		</g>
		<g>
			<rect x="973" y="387.6" width="10" height="0.4"/>
		</g>
	</g>
	<g>
		<path stroke="#000000" stroke-width="0.5" stroke-miterlimit="10" d="M498.7,247.4"/>
	</g>
	<g>
		<rect x="497.3" y="254.9" width="2.7" height="2.7"/>
		<path d="M500.2,257.8h-3.1v-3.1h3.1V257.8z M497.6,257.4h2.2v-2.2h-2.2V257.4z"/>
	</g>
	<g>
		<g>
			<rect x="971.7" y="517.8" width="2.7" height="2.7"/>
			<path d="M974.6,520.6h-3.1v-3.1h3.1V520.6z M971.9,520.1h2.2v-2.2h-2.2V520.1z"/>
		</g>
		<g>
			<rect x="733.8" y="517.8" width="2.7" height="2.7"/>
			<path d="M736.7,520.6h-3.1v-3.1h3.1V520.6z M734,520.1h2.2v-2.2H734V520.1z"/>
		</g>
		<g>
			<rect x="733.8" y="254.6" width="2.7" height="2.7"/>
			<path d="M736.7,257.5h-3.1v-3.1h3.1V257.5z M734,257h2.2v-2.2H734V257z"/>
		</g>
		<g>
			<rect x="497.3" y="517.8" width="2.7" height="2.7"/>
			<path d="M500.2,520.6h-3.1v-3.1h3.1V520.6z M497.6,520.1h2.2v-2.2h-2.2V520.1z"/>
		</g>
	</g>
	<g>
		<rect x="971.7" y="254.9" width="2.7" height="2.7"/>
		<path d="M974.6,257.8h-3.1v-3.1h3.1V257.8z M971.9,257.4h2.2v-2.2h-2.2V257.4z"/>
	</g>
</g>
<g>
	<g>
		<polygon points="407.2,430.9 63.2,430.9 63.2,430.5 406.7,430.5 406.7,337.6 63.2,337.6 63.2,337.1 407.2,337.1 		"/>
	</g>
	<g>
		<g>
			<rect x="405.6" y="336" width="2.7" height="2.7"/>
			<path d="M408.5,339h-3.1v-3.1h3.1V339z M405.8,338.6h2.2v-2.2h-2.2V338.6z"/>
		</g>
		<g>
			<rect x="234.7" y="336" width="2.7" height="2.7"/>
			<path d="M237.6,339h-3.1v-3.1h3.1V339z M234.9,338.6h2.2v-2.2h-2.2V338.6z"/>
		</g>
		<g>
			<rect x="61.8" y="336" width="2.7" height="2.7"/>
			<path d="M64.7,339h-3.1v-3.1h3.1V339z M62.1,338.6h2.2v-2.2h-2.2V338.6z"/>
		</g>
	</g>
	<g>
		<g>
			<rect x="405.6" y="429.2" width="2.7" height="2.7"/>
			<path d="M408.5,432.1h-3.1V429h3.1V432.1z M405.8,431.8h2.2v-2.2h-2.2V431.8z"/>
		</g>
		<g>
			<rect x="234.7" y="429.2" width="2.7" height="2.7"/>
			<path d="M237.6,432.1h-3.1V429h3.1V432.1z M234.9,431.8h2.2v-2.2h-2.2V431.8z"/>
		</g>
		<g>
			<rect x="61.8" y="429.2" width="2.7" height="2.7"/>
			<path d="M64.7,432.1h-3.1V429h3.1V432.1z M62.1,431.8h2.2v-2.2h-2.2V431.8z"/>
		</g>
	</g>
	<g>
		<g>
			<rect x="405.7" y="381.5" width="2.7" height="2.7"/>
			<path d="M408.6,384.4h-3.1v-3.1h3.1V384.4z M405.9,383.9h2.2v-2.2h-2.2V383.9z"/>
		</g>
		<g>
			<circle cx="419.2" cy="382.7" r="2.1"/>
			<path d="M419.2,385.1c-1.3,0-2.3-1-2.3-2.3s1-2.3,2.3-2.3s2.3,1,2.3,2.3S420.5,385.1,419.2,385.1z M419.2,380.8
				c-1,0-1.9,0.8-1.9,1.9s0.8,1.9,1.9,1.9s1.9-0.8,1.9-1.9S420.2,380.8,419.2,380.8z"/>
		</g>
		<g>
			<rect x="406.9" y="382.6" width="10" height="0.4"/>
		</g>
	</g>
	<g>
		<rect x="61.8" y="383" width="2.7" height="2.7"/>
		<path d="M64.7,385.9h-3.1v-3.1h3.1V385.9z M62.1,385.4h2.2v-2.2h-2.2V385.4z"/>
	</g>
	<line fill="#FFFFFF" stroke="#000000" stroke-width="0.5" stroke-miterlimit="10" x1="63.2" y1="338.8" x2="63.2" y2="430.5"/>
</g>
</svg>
